<svg width="32" height="32" viewBox="0 0 32 32" fill="none" xmlns="http://www.w3.org/2000/svg">
<rect width="32" height="32" rx="8" fill="#EDEDFF"/>
<path d="M19.2504 8.5C21.7923 8.5 23.5 10.2836 23.5 12.9375V19.0625C23.5 21.7164 21.7923 23.5 19.2496 23.5H12.7496C10.2077 23.5 8.5 21.7164 8.5 19.0625V12.9375C8.5 10.2836 10.2077 8.5 12.7496 8.5H19.2504ZM20.0774 16.4125C19.2735 15.911 18.6528 16.6153 18.4854 16.8406C18.324 17.058 18.1852 17.298 18.0389 17.5379C17.6814 18.13 17.2719 18.8127 16.563 19.2098C15.5327 19.7802 14.7507 19.2546 14.188 18.8723C13.9769 18.7299 13.7717 18.5952 13.5673 18.5054C13.0635 18.2879 12.6103 18.5356 11.9376 19.3901C11.5846 19.8367 11.2347 20.2794 10.8802 20.7206C10.6683 20.9845 10.7188 21.3916 11.0046 21.5681C11.4609 21.8491 12.0175 22 12.6465 22H18.9673C19.324 22 19.6815 21.9512 20.0224 21.8398C20.7901 21.589 21.3995 21.0147 21.7178 20.2562C21.9863 19.6184 22.1168 18.8444 21.8656 18.2005C21.7819 17.9868 21.6567 17.7879 21.481 17.613C21.0202 17.1556 20.5895 16.7283 20.0774 16.4125ZM13.3741 11.5C12.3402 11.5 11.5 12.3413 11.5 13.375C11.5 14.4087 12.3402 15.25 13.3741 15.25C14.4074 15.25 15.2483 14.4087 15.2483 13.375C15.2483 12.3413 14.4074 11.5 13.3741 11.5Z" fill="#A4A4FA"/>
</svg>
