<svg width="32" height="32" viewBox="0 0 32 32" fill="none" xmlns="http://www.w3.org/2000/svg">
<rect width="32" height="32" rx="8" fill="#EDEDFF"/>
<path fill-rule="evenodd" clip-rule="evenodd" d="M20.4301 15.0234H20.4114C20.1009 15.0122 19.8571 14.7527 19.8676 14.4422C19.8916 13.7289 19.5429 13.2662 18.9346 13.2039C18.6256 13.1724 18.4006 12.8964 18.4321 12.5874C18.4644 12.2792 18.7419 12.0519 19.0494 12.0849C20.2554 12.2079 21.0361 13.1702 20.9919 14.4797C20.9814 14.7842 20.7316 15.0234 20.4301 15.0234ZM20.3686 9.46291C19.0786 9.05041 17.2929 9.22141 16.1784 10.4859C15.0076 9.23041 13.2826 9.04816 12.0016 9.46366C9.06534 10.4087 8.14959 13.8107 8.98509 16.4199C10.3036 20.5232 14.6874 22.7372 16.1889 22.7372C17.5291 22.7372 22.0869 20.5652 23.3904 16.4199C24.2259 13.8114 23.3079 10.4094 20.3686 9.46291Z" fill="#A4A4FA"/>
</svg>
