<svg width="352" height="56" viewBox="0 0 352 56" fill="none" xmlns="http://www.w3.org/2000/svg">
<rect width="56" height="56" rx="8" fill="#2B2E30"/>
<path d="M16 28C20 20 24 20 28 28C32 36 36 36 40 28" stroke="#4A3B6D" stroke-width="2"/>
<path d="M20.8 25.5998L25.6 30.3998L35.2 20.7998" stroke="#4A3B6D" stroke-width="2"/>
<path d="M28 40C34.6274 40 40 34.6274 40 28C40 21.3726 34.6274 16 28 16C21.3726 16 16 21.3726 16 28C16 34.6274 21.3726 40 28 40Z" stroke="#4A3B6D" stroke-width="2"/>
<rect x="296" width="56" height="56" rx="8" fill="#2B2E30"/>
<path d="M328.516 19C331.964 19 334 20.9846 334 24.3818H329.769V24.4165C327.805 24.4165 326.213 25.9685 326.213 27.883C326.213 29.7975 327.805 31.3495 329.769 31.3495H334V31.6615C334 35.0154 331.964 37 328.516 37H319.484C316.036 37 314 35.0154 314 31.6615V24.3385C314 20.9846 316.036 19 319.484 19H328.516ZM333.253 25.8724C333.666 25.8724 334 26.1983 334 26.6004V29.131C333.995 29.5311 333.664 29.8543 333.253 29.8589H329.849C328.855 29.872 327.985 29.2084 327.76 28.2643C327.647 27.6783 327.806 27.0736 328.193 26.6122C328.581 26.1509 329.157 25.8801 329.769 25.8724H333.253ZM330.249 27.0424H329.92C329.718 27.0401 329.524 27.1166 329.38 27.255C329.236 27.3934 329.156 27.5821 329.156 27.779C329.156 28.1921 329.496 28.5282 329.92 28.533H330.249C330.671 28.533 331.013 28.1993 331.013 27.7877C331.013 27.3761 330.671 27.0424 330.249 27.0424ZM324.382 22.8912H318.738C318.319 22.8912 317.978 23.2196 317.973 23.6278C317.973 24.0409 318.314 24.3771 318.738 24.3818H324.382C324.804 24.3818 325.147 24.0481 325.147 23.6365C325.147 23.2249 324.804 22.8912 324.382 22.8912Z" fill="#7FD6E1"/>
<path d="M64 35.7805C100 15.9707 230.5 8.47072 287.5 35.7807" stroke="#3D3636" stroke-dasharray="8 8"/>
</svg>
