<svg width="92" height="33" viewBox="0 0 92 33" fill="none" xmlns="http://www.w3.org/2000/svg">
<path d="M1 16.5C6.16667 6.16667 11.3333 6.16667 16.5 16.5C21.6667 26.8333 26.8333 26.8333 32 16.5" stroke="#4A3B6D" stroke-width="2"/>
<path d="M7.20001 13.4L13.4 19.6L25.8 7.20001" stroke="#4A3B6D" stroke-width="2"/>
<path d="M16.5 32C25.0604 32 32 25.0604 32 16.5C32 7.93959 25.0604 1 16.5 1C7.93959 1 1 7.93959 1 16.5C1 25.0604 7.93959 32 16.5 32Z" stroke="#4A3B6D" stroke-width="2"/>
<path d="M41.218 22H40.196L43.878 11.976H45.124L48.848 22H47.798L46.818 19.34H42.198L41.218 22ZM44.368 13.39L42.506 18.458H46.496L44.62 13.39C44.578 13.25 44.508 13.082 44.494 12.984C44.48 13.068 44.424 13.25 44.368 13.39ZM51.2494 11.976V22H50.2414V11.976H51.2494ZM53.0148 18.416C53.0148 16.568 54.2048 15.042 56.1928 15.042C57.3688 15.042 58.2648 15.588 58.6988 16.582L58.7968 15.224H59.6368V21.79C59.6368 23.806 58.3488 25.122 56.3608 25.122C54.6248 25.122 53.4068 24.142 53.1408 22.504H54.1068C54.3167 23.596 55.1568 24.24 56.3748 24.24C57.7608 24.24 58.6848 23.302 58.6848 21.888V20.278C58.2228 21.23 57.2848 21.79 56.1228 21.79C54.1908 21.79 53.0148 20.264 53.0148 18.416ZM53.9808 18.402C53.9808 19.788 54.8348 20.922 56.2628 20.922C57.7328 20.922 58.6008 19.858 58.6008 18.402C58.6008 16.96 57.7608 15.896 56.2768 15.896C54.8208 15.896 53.9808 17.03 53.9808 18.402ZM64.4945 22.168C62.5065 22.168 61.1765 20.74 61.1765 18.612C61.1765 16.498 62.4925 15.042 64.4245 15.042C66.2585 15.042 67.5045 16.344 67.5045 18.262V18.738H62.1145C62.1845 20.39 63.0525 21.342 64.5085 21.342C65.6145 21.342 66.3285 20.866 66.5805 19.97H67.5045C67.1405 21.398 66.0905 22.168 64.4945 22.168ZM64.4245 15.868C63.1505 15.868 62.3105 16.708 62.1425 18.038H66.5385C66.5385 16.736 65.6985 15.868 64.4245 15.868ZM70.015 22H69.049V15.224H69.889L70.029 16.4C70.477 15.532 71.373 15.042 72.353 15.042C74.215 15.042 74.985 16.148 74.985 17.856V22H74.019V18.066C74.019 16.484 73.305 15.924 72.185 15.924C70.799 15.924 70.015 16.932 70.015 18.458V22ZM79.5703 22.168C77.5963 22.168 76.4343 20.656 76.4343 18.626C76.4343 16.582 77.5963 15.042 79.6123 15.042C80.7323 15.042 81.6283 15.532 82.1043 16.512V11.794H83.0703V22H82.2303L82.1323 20.614C81.6563 21.664 80.7043 22.168 79.5703 22.168ZM79.7383 21.286C81.2223 21.286 82.0903 20.166 82.0903 18.598C82.0903 17.044 81.2223 15.91 79.7383 15.91C78.2683 15.91 77.4143 17.044 77.4143 18.598C77.4143 20.166 78.2683 21.286 79.7383 21.286ZM87.0321 22.168C85.5901 22.168 84.7361 21.356 84.7361 20.166C84.7361 18.92 85.6881 18.136 87.2701 18.01L89.5101 17.828V17.604C89.5101 16.274 88.7121 15.854 87.7181 15.854C86.5421 15.854 85.8421 16.386 85.8421 17.296H84.9601C84.9601 15.924 86.0801 15.042 87.7461 15.042C89.3141 15.042 90.4621 15.826 90.4621 17.618V22H89.6501L89.5241 20.81C89.1041 21.664 88.1801 22.168 87.0321 22.168ZM87.2561 21.384C88.6841 21.384 89.5101 20.39 89.5101 18.92V18.556L87.5081 18.71C86.2341 18.822 85.7161 19.382 85.7161 20.138C85.7161 20.964 86.3321 21.384 87.2561 21.384Z" fill="white"/>
</svg>
