<svg width="56" height="56" viewBox="0 0 56 56" fill="none" xmlns="http://www.w3.org/2000/svg">
<path d="M38.8732 4.66669C46.8065 4.66669 51.3332 9.14669 51.3332 17.1034V38.8967C51.3332 46.8067 46.8298 51.3334 38.8965 51.3334H17.1032C9.1465 51.3334 4.6665 46.8067 4.6665 38.8967V17.1034C4.6665 9.14669 9.1465 4.66669 17.1032 4.66669H38.8732ZM27.9765 17.5234C26.9032 17.5234 26.0398 18.3867 26.0398 19.46V26.04H19.4365C18.9232 26.04 18.4332 26.25 18.0598 26.6C17.7098 26.9734 17.4998 27.461 17.4998 27.9767C17.4998 29.05 18.3632 29.9134 19.4365 29.9367H26.0398V36.54C26.0398 37.6134 26.9032 38.4767 27.9765 38.4767C29.0498 38.4767 29.9132 37.6134 29.9132 36.54V29.9367H36.5398C37.6132 29.9134 38.4765 29.05 38.4765 27.9767C38.4765 26.9034 37.6132 26.04 36.5398 26.04H29.9132V19.46C29.9132 18.3867 29.0498 17.5234 27.9765 17.5234Z" fill="#4AEBFF"/>
</svg>
