<svg width="32" height="32" viewBox="0 0 32 32" fill="none" xmlns="http://www.w3.org/2000/svg">
<rect width="32" height="32" rx="8" fill="#2B2E30"/>
<g clip-path="url(#clip0_170_19126)">
<path fill-rule="evenodd" clip-rule="evenodd" d="M21.0437 16.2312C20.1887 16.2312 19.3862 16.4037 18.7112 16.6962C21.0737 17.3787 22.7462 19.0137 22.7912 20.9262C24.0212 20.7687 25.3487 20.3037 25.3487 19.0362C25.3487 17.5137 23.3762 16.2312 21.0437 16.2312Z" fill="#B79FF0"/>
<path fill-rule="evenodd" clip-rule="evenodd" d="M21.0212 15.1513H21.0361C22.6336 15.1513 23.9387 13.8463 23.9387 12.2563C23.9387 10.6588 22.6336 9.35376 21.0361 9.35376C20.7211 9.35376 20.4212 9.40626 20.1362 9.49626C20.6537 10.2613 20.9537 11.1838 20.9537 12.1813C20.9612 13.1938 20.6461 14.1688 20.0536 14.9788C20.3611 15.0913 20.6837 15.1513 21.0212 15.1513Z" fill="#B79FF0"/>
<path fill-rule="evenodd" clip-rule="evenodd" d="M13.6562 16.6887C12.9812 16.4037 12.1787 16.2312 11.3312 16.2312C8.99868 16.2312 7.02618 17.5137 7.02618 19.0362C7.02618 20.3037 8.34618 20.7612 9.57618 20.9262C9.61368 19.0137 11.2862 17.3787 13.6562 16.6887Z" fill="#B79FF0"/>
<path fill-rule="evenodd" clip-rule="evenodd" d="M11.3312 15.1513H11.3537C11.6912 15.1513 12.0137 15.0913 12.3212 14.9788C11.7512 14.1988 11.4137 13.2313 11.4137 12.1813C11.4137 11.1838 11.7137 10.2613 12.2312 9.49626C11.9462 9.40626 11.6462 9.35376 11.3312 9.35376C9.73372 9.35376 8.43622 10.6588 8.43622 12.2563C8.43622 13.8463 9.73372 15.1513 11.3312 15.1513Z" fill="#B79FF0"/>
<path fill-rule="evenodd" clip-rule="evenodd" d="M16.1834 17.4592C13.2126 17.4592 10.7024 19.0762 10.7024 20.9902C10.7024 23.4652 14.8274 23.4652 16.1834 23.4652C18.5369 23.4652 21.6659 23.2102 21.6659 21.006C21.6659 19.083 19.1549 17.4592 16.1834 17.4592Z" fill="#B79FF0"/>
<path fill-rule="evenodd" clip-rule="evenodd" d="M16.1841 15.8309H16.2089C17.1801 15.8279 18.0921 15.4461 18.7761 14.7569C19.4609 14.0677 19.8359 13.1534 19.8321 12.1837C19.8321 10.1714 18.1964 8.53491 16.1841 8.53491C14.1726 8.53491 12.5369 10.1714 12.5369 12.1837C12.5369 14.1944 14.1726 15.8309 16.1841 15.8309Z" fill="#B79FF0"/>
</g>
<defs>
<clipPath id="clip0_170_19126">
<rect width="18" height="18" fill="white" transform="translate(7 7)"/>
</clipPath>
</defs>
</svg>
