<svg width="32" height="32" viewBox="0 0 32 32" fill="none" xmlns="http://www.w3.org/2000/svg">
<rect width="32" height="32" rx="8" fill="#2B2E30"/>
<path d="M14.012 18.1433C17.001 18.1433 19.524 18.6183 19.524 20.4553C19.524 22.2908 16.9849 22.75 14.012 22.75L13.809 22.7493C10.9096 22.7277 8.5 22.2332 8.5 20.438C8.5 18.6025 11.0391 18.1433 14.012 18.1433ZM18.6773 17.0374C19.814 17.0158 21.0366 17.1689 21.4879 17.2767C22.4449 17.46 23.0738 17.833 23.3343 18.377C23.5552 18.8226 23.5552 19.34 23.3343 19.7856C22.9358 20.6279 21.6501 20.8988 21.1504 20.9686C21.0469 20.9829 20.964 20.8967 20.975 20.7946C21.2304 18.4604 19.1998 17.3536 18.6743 17.0992C18.6523 17.087 18.6472 17.0697 18.6494 17.0582C18.6509 17.0511 18.6604 17.0396 18.6773 17.0374ZM14.012 9.25C16.0367 9.25 17.6593 10.839 17.6593 12.8218C17.6593 14.8046 16.0367 16.3936 14.012 16.3936C11.988 16.3936 10.3647 14.8046 10.3647 12.8218C10.3647 10.839 11.988 9.25 14.012 9.25ZM18.8754 9.84657C20.8311 9.84657 22.3664 11.6476 21.8431 13.6534C21.4901 15.0052 20.2125 15.9028 18.7888 15.8662C18.6457 15.8633 18.5056 15.8497 18.3691 15.8274C18.2707 15.8101 18.2208 15.7016 18.2773 15.6211C18.8204 14.8385 19.1301 13.8963 19.1301 12.8866C19.1301 11.8315 18.7925 10.8491 18.2047 10.0421C18.1856 10.0169 18.1716 9.97881 18.1907 9.94934C18.2054 9.92634 18.2348 9.91341 18.2619 9.90766C18.4601 9.86813 18.6633 9.84657 18.8754 9.84657Z" fill="#7FD6E1"/>
</svg>
