<svg width="32" height="32" viewBox="0 0 32 32" fill="none" xmlns="http://www.w3.org/2000/svg">
<rect width="32" height="32" rx="8" fill="#2B2E30"/>
<g clip-path="url(#clip0_248_298)">
<path fill-rule="evenodd" clip-rule="evenodd" d="M23.2188 15.6366C19.9487 14.7936 17.3935 12.2384 16.5505 8.96839L16.1875 7.56064L15.8245 8.96839C14.9815 12.2384 12.4263 14.7936 9.15629 15.6366L7.74854 15.9996L9.15629 16.3634C12.4263 17.2064 14.9815 19.7616 15.8245 23.0309L16.1875 24.4394L16.5505 23.0309C17.3935 19.7616 19.9487 17.2064 23.2188 16.3634L24.6265 15.9996L23.2188 15.6366Z" fill="#D4A5C5"/>
<path fill-rule="evenodd" clip-rule="evenodd" d="M21.2509 12.8102C21.2509 11.9387 22.2064 10.9359 23.1252 10.9359C22.2409 10.9359 21.2509 9.92269 21.2509 9.06244C21.2509 9.92269 20.2699 10.9359 19.3774 10.9359C20.2362 10.9359 21.2509 11.9334 21.2509 12.8102Z" fill="#D4A5C5"/>
</g>
<defs>
<clipPath id="clip0_248_298">
<rect width="18" height="18" fill="white" transform="translate(7 7)"/>
</clipPath>
</defs>
</svg>
