<svg width="32" height="32" viewBox="0 0 32 32" fill="none" xmlns="http://www.w3.org/2000/svg">
<rect width="32" height="32" rx="8" fill="#F5E7F0"/>
<path fill-rule="evenodd" clip-rule="evenodd" d="M19.4808 15.8448C18.7413 17.0645 17.5053 17.8161 16.2461 17.8161C16.2108 17.8161 16.1756 17.8161 16.1396 17.8161C14.8991 17.8161 13.6631 17.0645 12.9236 15.8448L12.6401 15.3782L13.6128 14.8346L13.8956 15.3012C14.3231 16.0061 15.1376 16.7729 16.1928 16.7354C17.2556 16.7671 18.0813 16.0068 18.5088 15.3012L18.7916 14.8346L19.7636 15.3782L19.4808 15.8448ZM20.2676 9.88675C18.6948 9.40003 17.2631 9.80539 16.1876 11.0279C15.1113 9.80539 13.6796 9.40003 12.1068 9.88675C10.1223 10.5009 8.88407 12.2231 8.87507 14.3803C8.85632 18.0768 12.5621 20.9726 16.0361 22.4493L16.1883 22.5141L16.3406 22.4493C19.8138 20.9719 23.5188 18.0761 23.5001 14.3795C23.4911 12.2224 22.2528 10.5009 20.2676 9.88675Z" fill="#D4A5C5"/>
</svg>
