<svg width="32" height="32" viewBox="0 0 32 32" fill="none" xmlns="http://www.w3.org/2000/svg">
<rect width="32" height="32" rx="8" fill="#2B2E30"/>
<path d="M18.4849 10C18.4494 10.1823 18.4317 10.3675 18.4321 10.5532C18.4321 12.2189 19.7844 13.5693 21.4526 13.5693C21.6363 13.5684 21.8195 13.5507 22 13.5166V19.4961C22 22.0117 20.5161 23.5 17.9968 23.5H12.5098C9.98388 23.5 8.5 22.0117 8.5 19.4961V14.0171C8.5 11.5015 9.98388 10 12.5098 10H18.4849ZM18.4875 14.5012C18.3408 14.5223 18.209 14.6019 18.1221 14.7217L16.3151 17.0463L14.2575 15.4263C14.14 15.3348 13.9905 15.2944 13.8429 15.3142C13.6952 15.3341 13.5617 15.4125 13.4726 15.5317L11.2567 18.3898C11.1788 18.4868 11.1369 18.6078 11.138 18.7322L11.14 18.815C11.1614 19.0325 11.3106 19.2204 11.5243 19.2879C11.7647 19.3637 12.026 19.268 12.1602 19.0549L14.0134 16.6578L16.0711 18.2712C16.1881 18.3656 16.3385 18.4083 16.4878 18.3897C16.6371 18.3711 16.7723 18.2927 16.8625 18.1724L19.0059 15.4066V15.3934C19.1894 15.1468 19.1425 14.7992 18.9003 14.6098C18.7831 14.5193 18.6342 14.4801 18.4875 14.5012Z" fill="#D4A5C5"/>
<path opacity="0.4" d="M21.625 12.25C22.6605 12.25 23.5 11.4105 23.5 10.375C23.5 9.33947 22.6605 8.5 21.625 8.5C20.5895 8.5 19.75 9.33947 19.75 10.375C19.75 11.4105 20.5895 12.25 21.625 12.25Z" fill="#D4A5C5"/>
</svg>
