<svg width="32" height="32" viewBox="0 0 32 32" fill="none" xmlns="http://www.w3.org/2000/svg">
<rect width="32" height="32" rx="8" fill="#ECF5F7"/>
<path fill-rule="evenodd" clip-rule="evenodd" d="M18.392 16.73H18.3575C17.9435 16.73 17.6075 16.4074 17.6075 16.01C17.6075 15.6126 17.9435 15.29 18.3575 15.29C18.773 15.29 19.1247 15.6198 19.1247 16.01C19.1247 16.4139 18.803 16.73 18.392 16.73ZM13.5477 12.3358C13.64 11.8102 13.8935 11.3242 14.2962 10.9412C14.801 10.4609 15.47 10.1967 16.1825 10.1967H16.1952C17.5182 10.1967 18.6125 11.1241 18.8277 12.3358C18.0537 12.2357 17.1852 12.1803 16.1877 12.1803C15.191 12.1803 14.3217 12.2357 13.5477 12.3358ZM14.0187 16.73H13.9842C13.571 16.73 13.2342 16.4074 13.2342 16.01C13.2342 15.6126 13.571 15.29 13.9842 15.29C14.4005 15.29 14.7515 15.6198 14.7515 16.01C14.7515 16.4139 14.4297 16.73 14.0187 16.73ZM22.688 14.0177C22.133 13.3229 21.236 12.8405 19.9745 12.5425C19.8507 10.6359 18.212 9.1167 16.1975 9.1167H16.1802C15.1715 9.1167 14.2212 9.49181 13.5042 10.1744C12.8382 10.808 12.4625 11.6396 12.4017 12.5425C11.1395 12.8398 10.2425 13.3222 9.68747 14.0177C8.92997 14.9674 8.79872 16.2728 9.28697 18.0094C10.4142 22.0242 11.0757 23.6528 16.1877 23.6528C21.299 23.6528 21.9605 22.0242 23.0885 18.0094C23.576 16.2728 23.4455 14.9674 22.688 14.0177Z" fill="#7FD6E1"/>
</svg>
