<svg width="32" height="32" viewBox="0 0 32 32" fill="none" xmlns="http://www.w3.org/2000/svg">
<rect width="32" height="32" rx="8" fill="#2B2E30"/>
<path d="M16 8.50012C20.1475 8.50012 23.5 11.8601 23.5 16.0001C23.5 20.1476 20.1475 23.5001 16 23.5001C11.86 23.5001 8.5 20.1476 8.5 16.0001C8.5 11.8601 11.86 8.50012 16 8.50012ZM15.7375 12.1976C15.43 12.1976 15.175 12.4451 15.175 12.7601V16.5476C15.175 16.7426 15.28 16.9226 15.4525 17.0276L18.3925 18.7826C18.4825 18.8351 18.58 18.8651 18.685 18.8651C18.8725 18.8651 19.06 18.7676 19.165 18.5876C19.3225 18.3251 19.24 17.9801 18.97 17.8151L16.3 16.2251V12.7601C16.3 12.4451 16.045 12.1976 15.7375 12.1976Z" fill="#7FD6E1"/>
</svg>
