<svg width="32" height="32" viewBox="0 0 32 32" fill="none" xmlns="http://www.w3.org/2000/svg">
<rect width="32" height="32" rx="8" fill="#2B2E30"/>
<g clip-path="url(#clip0_170_19162)">
<path fill-rule="evenodd" clip-rule="evenodd" d="M23.2188 15.6365C19.9487 14.7935 17.3935 12.2383 16.5505 8.9683L16.1875 7.56055L15.8245 8.9683C14.9815 12.2383 12.4263 14.7935 9.15629 15.6365L7.74854 15.9995L9.15629 16.3633C12.4263 17.2063 14.9815 19.7615 15.8245 23.0308L16.1875 24.4393L16.5505 23.0308C17.3935 19.7615 19.9487 17.2063 23.2188 16.3633L24.6265 15.9995L23.2188 15.6365Z" fill="#D4A5C5"/>
<path fill-rule="evenodd" clip-rule="evenodd" d="M21.2508 12.8102C21.2508 11.9387 22.2063 10.936 23.1251 10.936C22.2408 10.936 21.2508 9.92275 21.2508 9.0625C21.2508 9.92275 20.2698 10.936 19.3773 10.936C20.2361 10.936 21.2508 11.9335 21.2508 12.8102Z" fill="#D4A5C5"/>
</g>
<defs>
<clipPath id="clip0_170_19162">
<rect width="18" height="18" fill="white" transform="translate(7 7)"/>
</clipPath>
</defs>
</svg>
