<svg width="32" height="32" viewBox="0 0 32 32" fill="none" xmlns="http://www.w3.org/2000/svg">
<path d="M21.7783 2.66666C26.2973 2.66666 29.3332 5.83747 29.3332 10.5556V21.4444C29.3332 26.1625 26.2973 29.3333 21.7769 29.3333H10.2214C5.70236 29.3333 2.6665 26.1625 2.6665 21.4444V10.5556C2.6665 5.83747 5.70236 2.66666 10.2214 2.66666H21.7783ZM23.2486 16.7334C21.8194 15.8418 20.7159 17.0939 20.4183 17.4943C20.1313 17.881 19.8846 18.3075 19.6245 18.7341C18.989 19.7867 18.261 21.0003 17.0006 21.7062C15.1692 22.7203 13.7788 21.786 12.7786 21.1063C12.4031 20.8531 12.0385 20.6137 11.6751 20.4541C10.7795 20.0674 9.97367 20.5077 8.77771 22.0268C8.15023 22.8208 7.52811 23.6078 6.89795 24.3921C6.52119 24.8614 6.61102 25.5851 7.11918 25.8989C7.93034 26.3983 8.91983 26.6667 10.038 26.6667H21.275C21.9092 26.6667 22.5447 26.58 23.1507 26.3818C24.5157 25.936 25.599 24.915 26.1648 23.5666C26.6421 22.4327 26.8741 21.0567 26.4276 19.9119C26.2788 19.5322 26.0562 19.1785 25.7438 18.8675C24.9246 18.0543 24.159 17.2948 23.2486 16.7334ZM11.3316 7.99999C9.49345 7.99999 7.99984 9.49563 7.99984 11.3333C7.99984 13.171 9.49345 14.6667 11.3316 14.6667C13.1685 14.6667 14.6635 13.171 14.6635 11.3333C14.6635 9.49563 13.1685 7.99999 11.3316 7.99999Z" fill="#B9B9B9"/>
</svg>
