<svg width="28" height="28" viewBox="0 0 28 28" fill="none" xmlns="http://www.w3.org/2000/svg">
<rect x="0.5" y="0.5" width="27" height="27" rx="7.5" stroke="#2C2B2B"/>
<path d="M17.763 6.5C20.6371 6.5 22.3334 8.15383 22.3334 10.9848H18.8075V11.0137C17.1711 11.0137 15.8445 12.3071 15.8445 13.9025C15.8445 15.4979 17.1711 16.7913 18.8075 16.7913H22.3334V17.0513C22.3334 19.8462 20.6371 21.5 17.763 21.5H10.2371C7.36304 21.5 5.66675 19.8462 5.66675 17.0513V10.9487C5.66675 8.15383 7.36304 6.5 10.2371 6.5H17.763ZM21.7112 12.227C22.0548 12.227 22.3334 12.4986 22.3334 12.8337V14.9425C22.3294 15.2759 22.0532 15.5452 21.7112 15.5491H18.8742C18.0457 15.56 17.3213 15.007 17.1334 14.2203C17.0393 13.7319 17.1714 13.228 17.4943 12.8435C17.8172 12.4591 18.2979 12.2334 18.8075 12.227H21.7112ZM19.2075 13.202H18.9334C18.7651 13.2 18.6031 13.2639 18.4834 13.3792C18.3637 13.4945 18.2964 13.6518 18.2964 13.8158C18.2964 14.16 18.5804 14.4402 18.9334 14.4441H19.2075C19.5593 14.4441 19.8445 14.1661 19.8445 13.8231C19.8445 13.48 19.5593 13.202 19.2075 13.202ZM14.3186 9.74266H9.6149C9.26594 9.74263 8.98192 10.0163 8.97786 10.3565C8.97786 10.7007 9.26188 10.9809 9.6149 10.9848H14.3186C14.6704 10.9848 14.9556 10.7068 14.9556 10.3637C14.9556 10.0207 14.6704 9.74266 14.3186 9.74266Z" fill="#7FD6E1"/>
</svg>
